<svg width="16" height="16" viewBox="0 0 16 16" fill="none" xmlns="http://www.w3.org/2000/svg">
<path d="M8.89999 1.7C8.89999 1.20295 8.49704 0.800003 7.99999 0.800003C7.50293 0.800003 7.09999 1.20295 7.09999 1.7V7.1H1.69999C1.20293 7.1 0.799988 7.50295 0.799988 8C0.799988 8.49706 1.20293 8.9 1.69999 8.9L7.09999 8.9V14.3C7.09999 14.7971 7.50293 15.2 7.99999 15.2C8.49704 15.2 8.89999 14.7971 8.89999 14.3V8.9L14.3 8.9C14.797 8.9 15.2 8.49706 15.2 8C15.2 7.50295 14.797 7.1 14.3 7.1H8.89999V1.7Z" fill="white"/>
</svg>
